<mxfile host="app.diagrams.net" modified="2021-07-30T02:58:43.120Z" agent="5.0 (Windows NT 10.0; Win64; x64) AppleWebKit/537.36 (KHTML, like Gecko) Chrome/91.0.4472.164 Safari/537.36" etag="ynlfVSDekI4rGv6pk6Fq" version="14.9.3" type="github">
  <diagram id="_2wtWLizdt5FLl7UWOuG" name="Page-1">
    <mxGraphModel dx="1022" dy="468" grid="0" gridSize="10" guides="1" tooltips="1" connect="1" arrows="1" fold="1" page="1" pageScale="1" pageWidth="1169" pageHeight="827" math="0" shadow="0">
      <root>
        <mxCell id="0" />
        <mxCell id="1" parent="0" />
        <mxCell id="Rzl8FJI0BWgjn5kntQyp-57" style="edgeStyle=orthogonalEdgeStyle;rounded=0;orthogonalLoop=1;jettySize=auto;html=1;entryX=0;entryY=0.5;entryDx=0;entryDy=0;strokeColor=#0000CC;" edge="1" parent="1" source="Rzl8FJI0BWgjn5kntQyp-24" target="Rzl8FJI0BWgjn5kntQyp-19">
          <mxGeometry relative="1" as="geometry">
            <Array as="points">
              <mxPoint x="499" y="199" />
              <mxPoint x="499" y="199" />
            </Array>
          </mxGeometry>
        </mxCell>
        <mxCell id="Rzl8FJI0BWgjn5kntQyp-59" style="edgeStyle=orthogonalEdgeStyle;rounded=0;orthogonalLoop=1;jettySize=auto;html=1;entryX=0;entryY=0.5;entryDx=0;entryDy=0;strokeColor=#0000CC;" edge="1" parent="1" source="Rzl8FJI0BWgjn5kntQyp-24" target="Rzl8FJI0BWgjn5kntQyp-40">
          <mxGeometry relative="1" as="geometry">
            <Array as="points">
              <mxPoint x="510" y="199" />
              <mxPoint x="510" y="349" />
            </Array>
          </mxGeometry>
        </mxCell>
        <mxCell id="Rzl8FJI0BWgjn5kntQyp-60" style="edgeStyle=orthogonalEdgeStyle;rounded=0;orthogonalLoop=1;jettySize=auto;html=1;strokeColor=#0000CC;" edge="1" parent="1" source="Rzl8FJI0BWgjn5kntQyp-24" target="Rzl8FJI0BWgjn5kntQyp-20">
          <mxGeometry relative="1" as="geometry">
            <Array as="points">
              <mxPoint x="510" y="199" />
              <mxPoint x="510" y="88" />
            </Array>
          </mxGeometry>
        </mxCell>
        <mxCell id="Rzl8FJI0BWgjn5kntQyp-24" value="智慧餐厅应用服务" style="rounded=1;whiteSpace=wrap;html=1;dashed=1;gradientColor=none;labelPosition=center;verticalLabelPosition=bottom;align=center;verticalAlign=top;strokeWidth=3;strokeColor=#FFB366;" vertex="1" parent="1">
          <mxGeometry x="160" y="44" width="320" height="352" as="geometry" />
        </mxCell>
        <mxCell id="Rzl8FJI0BWgjn5kntQyp-36" value="" style="edgeStyle=orthogonalEdgeStyle;rounded=0;orthogonalLoop=1;jettySize=auto;html=1;strokeColor=#0000CC;" edge="1" parent="1" source="Rzl8FJI0BWgjn5kntQyp-2" target="Rzl8FJI0BWgjn5kntQyp-24">
          <mxGeometry relative="1" as="geometry">
            <Array as="points">
              <mxPoint x="120" y="55" />
              <mxPoint x="120" y="199" />
            </Array>
          </mxGeometry>
        </mxCell>
        <mxCell id="Rzl8FJI0BWgjn5kntQyp-2" value="工作站" style="fontColor=#0066CC;verticalAlign=top;verticalLabelPosition=bottom;labelPosition=center;align=center;html=1;outlineConnect=0;fillColor=#CCCCCC;strokeColor=#6881B3;gradientColor=none;gradientDirection=north;strokeWidth=2;shape=mxgraph.networks.pc;" vertex="1" parent="1">
          <mxGeometry x="44" y="40" width="40" height="30" as="geometry" />
        </mxCell>
        <mxCell id="Rzl8FJI0BWgjn5kntQyp-22" value="" style="edgeStyle=orthogonalEdgeStyle;rounded=0;orthogonalLoop=1;jettySize=auto;html=1;" edge="1" parent="1" source="Rzl8FJI0BWgjn5kntQyp-15" target="Rzl8FJI0BWgjn5kntQyp-18">
          <mxGeometry relative="1" as="geometry" />
        </mxCell>
        <mxCell id="Rzl8FJI0BWgjn5kntQyp-15" value="nginx" style="shape=image;html=1;verticalAlign=top;verticalLabelPosition=bottom;labelBackgroundColor=#ffffff;imageAspect=0;aspect=fixed;image=https://cdn4.iconfinder.com/data/icons/logos-brands-5/24/nginx-128.png" vertex="1" parent="1">
          <mxGeometry x="212.25" y="70" width="75" height="75" as="geometry" />
        </mxCell>
        <mxCell id="Rzl8FJI0BWgjn5kntQyp-23" value="" style="edgeStyle=orthogonalEdgeStyle;rounded=0;orthogonalLoop=1;jettySize=auto;html=1;" edge="1" parent="1" source="Rzl8FJI0BWgjn5kntQyp-16" target="Rzl8FJI0BWgjn5kntQyp-17">
          <mxGeometry relative="1" as="geometry" />
        </mxCell>
        <mxCell id="Rzl8FJI0BWgjn5kntQyp-16" value="nginx" style="shape=image;html=1;verticalAlign=top;verticalLabelPosition=bottom;labelBackgroundColor=#ffffff;imageAspect=0;aspect=fixed;image=https://cdn4.iconfinder.com/data/icons/logos-brands-5/24/nginx-128.png" vertex="1" parent="1">
          <mxGeometry x="209.5" y="234.75" width="80.5" height="80.5" as="geometry" />
        </mxCell>
        <mxCell id="Rzl8FJI0BWgjn5kntQyp-17" value="web应用服务器" style="fontColor=#0066CC;verticalAlign=top;verticalLabelPosition=bottom;labelPosition=center;align=center;html=1;outlineConnect=0;fillColor=#CCCCCC;strokeColor=#6881B3;gradientColor=none;gradientDirection=north;strokeWidth=2;shape=mxgraph.networks.server;" vertex="1" parent="1">
          <mxGeometry x="360" y="244.5" width="60" height="61" as="geometry" />
        </mxCell>
        <mxCell id="Rzl8FJI0BWgjn5kntQyp-18" value="web&amp;nbsp;应用服务器" style="fontColor=#0066CC;verticalAlign=top;verticalLabelPosition=bottom;labelPosition=center;align=center;html=1;outlineConnect=0;fillColor=#CCCCCC;strokeColor=#6881B3;gradientColor=none;gradientDirection=north;strokeWidth=2;shape=mxgraph.networks.server;" vertex="1" parent="1">
          <mxGeometry x="360" y="78.5" width="60" height="58" as="geometry" />
        </mxCell>
        <mxCell id="Rzl8FJI0BWgjn5kntQyp-37" value="" style="edgeStyle=orthogonalEdgeStyle;rounded=0;orthogonalLoop=1;jettySize=auto;html=1;strokeColor=#0000CC;startArrow=none;" edge="1" parent="1" source="Rzl8FJI0BWgjn5kntQyp-45" target="Rzl8FJI0BWgjn5kntQyp-24">
          <mxGeometry relative="1" as="geometry">
            <Array as="points">
              <mxPoint x="120" y="140" />
              <mxPoint x="120" y="199" />
            </Array>
          </mxGeometry>
        </mxCell>
        <mxCell id="Rzl8FJI0BWgjn5kntQyp-28" value="智能结算台" style="points=[];aspect=fixed;html=1;align=center;shadow=0;dashed=0;image;image=img/lib/allied_telesis/security/POS.svg;strokeColor=#FFB366;strokeWidth=3;fillColor=#FFB570;gradientColor=none;" vertex="1" parent="1">
          <mxGeometry x="31.59" y="110" width="56.51" height="60" as="geometry" />
        </mxCell>
        <mxCell id="Rzl8FJI0BWgjn5kntQyp-38" value="" style="edgeStyle=orthogonalEdgeStyle;rounded=0;orthogonalLoop=1;jettySize=auto;html=1;strokeColor=#0000CC;" edge="1" parent="1" source="Rzl8FJI0BWgjn5kntQyp-29" target="Rzl8FJI0BWgjn5kntQyp-24">
          <mxGeometry relative="1" as="geometry">
            <Array as="points">
              <mxPoint x="120" y="224" />
              <mxPoint x="120" y="199" />
            </Array>
          </mxGeometry>
        </mxCell>
        <mxCell id="Rzl8FJI0BWgjn5kntQyp-29" value="消费机" style="points=[];aspect=fixed;html=1;align=center;shadow=0;dashed=0;image;image=img/lib/allied_telesis/computer_and_terminals/POS_keypad.svg;strokeColor=#FFB366;strokeWidth=3;fillColor=#FFB570;gradientColor=none;" vertex="1" parent="1">
          <mxGeometry x="31.59" y="202.5" width="56.61" height="42" as="geometry" />
        </mxCell>
        <mxCell id="Rzl8FJI0BWgjn5kntQyp-39" value="" style="edgeStyle=orthogonalEdgeStyle;rounded=0;orthogonalLoop=1;jettySize=auto;html=1;strokeColor=#0000CC;startArrow=none;" edge="1" parent="1" source="Rzl8FJI0BWgjn5kntQyp-45" target="Rzl8FJI0BWgjn5kntQyp-24">
          <mxGeometry relative="1" as="geometry">
            <Array as="points">
              <mxPoint x="120" y="199" />
            </Array>
          </mxGeometry>
        </mxCell>
        <mxCell id="Rzl8FJI0BWgjn5kntQyp-33" value="小程序" style="verticalLabelPosition=bottom;verticalAlign=top;html=1;shadow=0;dashed=0;strokeWidth=1;shape=mxgraph.android.phone2;strokeColor=#c0c0c0;fillColor=#FFB570;gradientColor=none;" vertex="1" parent="1">
          <mxGeometry x="48.79" y="290" width="32.41" height="64" as="geometry" />
        </mxCell>
        <mxCell id="Rzl8FJI0BWgjn5kntQyp-46" value="" style="edgeStyle=orthogonalEdgeStyle;rounded=0;orthogonalLoop=1;jettySize=auto;html=1;strokeColor=#0000CC;endArrow=none;" edge="1" parent="1" source="Rzl8FJI0BWgjn5kntQyp-33" target="Rzl8FJI0BWgjn5kntQyp-45">
          <mxGeometry relative="1" as="geometry">
            <mxPoint x="81.20000000000005" y="322" as="sourcePoint" />
            <mxPoint x="160" y="199" as="targetPoint" />
            <Array as="points">
              <mxPoint x="120" y="322" />
            </Array>
          </mxGeometry>
        </mxCell>
        <mxCell id="Rzl8FJI0BWgjn5kntQyp-47" value="" style="edgeStyle=orthogonalEdgeStyle;rounded=0;orthogonalLoop=1;jettySize=auto;html=1;strokeColor=#0000CC;endArrow=none;" edge="1" parent="1" source="Rzl8FJI0BWgjn5kntQyp-28" target="Rzl8FJI0BWgjn5kntQyp-45">
          <mxGeometry relative="1" as="geometry">
            <mxPoint x="88.09999999999991" y="140" as="sourcePoint" />
            <mxPoint x="160" y="199" as="targetPoint" />
            <Array as="points" />
          </mxGeometry>
        </mxCell>
        <mxCell id="Rzl8FJI0BWgjn5kntQyp-45" value="http/https" style="text;html=1;strokeColor=none;fillColor=none;align=center;verticalAlign=middle;whiteSpace=wrap;rounded=0;dashed=1;" vertex="1" parent="1">
          <mxGeometry x="100" y="174.5" width="40" height="20" as="geometry" />
        </mxCell>
        <mxCell id="Rzl8FJI0BWgjn5kntQyp-54" value="" style="group" vertex="1" connectable="0" parent="1">
          <mxGeometry x="540" y="47" width="180" height="81" as="geometry" />
        </mxCell>
        <mxCell id="Rzl8FJI0BWgjn5kntQyp-20" value="Mysql集群（存储业务数据）" style="rounded=1;whiteSpace=wrap;html=1;dashed=1;labelPosition=center;verticalLabelPosition=bottom;align=center;verticalAlign=top;" vertex="1" parent="Rzl8FJI0BWgjn5kntQyp-54">
          <mxGeometry width="180" height="81" as="geometry" />
        </mxCell>
        <mxCell id="Rzl8FJI0BWgjn5kntQyp-12" value="" style="outlineConnect=0;fontColor=#232F3E;gradientColor=none;fillColor=#3334B9;strokeColor=none;dashed=0;verticalLabelPosition=bottom;verticalAlign=top;align=center;html=1;fontSize=12;fontStyle=0;aspect=fixed;pointerEvents=1;shape=mxgraph.aws4.rds_mysql_instance;" vertex="1" parent="Rzl8FJI0BWgjn5kntQyp-54">
          <mxGeometry x="21" y="11" width="50" height="50" as="geometry" />
        </mxCell>
        <mxCell id="Rzl8FJI0BWgjn5kntQyp-13" value="" style="outlineConnect=0;fontColor=#232F3E;gradientColor=none;fillColor=#3334B9;strokeColor=none;dashed=0;verticalLabelPosition=bottom;verticalAlign=top;align=center;html=1;fontSize=12;fontStyle=0;aspect=fixed;pointerEvents=1;shape=mxgraph.aws4.rds_mysql_instance;" vertex="1" parent="Rzl8FJI0BWgjn5kntQyp-54">
          <mxGeometry x="90" y="11" width="50" height="50" as="geometry" />
        </mxCell>
        <mxCell id="Rzl8FJI0BWgjn5kntQyp-55" value="" style="group" vertex="1" connectable="0" parent="1">
          <mxGeometry x="540" y="160.5" width="180" height="77.5" as="geometry" />
        </mxCell>
        <mxCell id="Rzl8FJI0BWgjn5kntQyp-19" value="Mongodb集群（存储人脸特征）" style="rounded=1;whiteSpace=wrap;html=1;dashed=1;labelPosition=center;verticalLabelPosition=bottom;align=center;verticalAlign=top;" vertex="1" parent="Rzl8FJI0BWgjn5kntQyp-55">
          <mxGeometry width="180" height="77.5" as="geometry" />
        </mxCell>
        <mxCell id="Rzl8FJI0BWgjn5kntQyp-10" value="" style="points=[[0,0,0],[0.25,0,0],[0.5,0,0],[0.75,0,0],[1,0,0],[0,1,0],[0.25,1,0],[0.5,1,0],[0.75,1,0],[1,1,0],[0,0.25,0],[0,0.5,0],[0,0.75,0],[1,0.25,0],[1,0.5,0],[1,0.75,0]];outlineConnect=0;fontColor=#232F3E;gradientColor=#4D72F3;gradientDirection=north;fillColor=#3334B9;strokeColor=#ffffff;dashed=0;verticalLabelPosition=bottom;verticalAlign=top;align=center;html=1;fontSize=12;fontStyle=0;aspect=fixed;shape=mxgraph.aws4.resourceIcon;resIcon=mxgraph.aws4.documentdb_with_mongodb_compatibility;" vertex="1" parent="Rzl8FJI0BWgjn5kntQyp-55">
          <mxGeometry x="22" y="14" width="50" height="50" as="geometry" />
        </mxCell>
        <mxCell id="Rzl8FJI0BWgjn5kntQyp-14" value="" style="points=[[0,0,0],[0.25,0,0],[0.5,0,0],[0.75,0,0],[1,0,0],[0,1,0],[0.25,1,0],[0.5,1,0],[0.75,1,0],[1,1,0],[0,0.25,0],[0,0.5,0],[0,0.75,0],[1,0.25,0],[1,0.5,0],[1,0.75,0]];outlineConnect=0;fontColor=#232F3E;gradientColor=#4D72F3;gradientDirection=north;fillColor=#3334B9;strokeColor=#ffffff;dashed=0;verticalLabelPosition=bottom;verticalAlign=top;align=center;html=1;fontSize=12;fontStyle=0;aspect=fixed;shape=mxgraph.aws4.resourceIcon;resIcon=mxgraph.aws4.documentdb_with_mongodb_compatibility;" vertex="1" parent="Rzl8FJI0BWgjn5kntQyp-55">
          <mxGeometry x="90" y="15.75" width="50" height="50" as="geometry" />
        </mxCell>
        <mxCell id="Rzl8FJI0BWgjn5kntQyp-56" value="" style="group" vertex="1" connectable="0" parent="1">
          <mxGeometry x="540" y="283" width="181" height="131" as="geometry" />
        </mxCell>
        <mxCell id="Rzl8FJI0BWgjn5kntQyp-40" value="Minio集群（存储图片）" style="rounded=1;whiteSpace=wrap;html=1;dashed=1;labelPosition=center;verticalLabelPosition=bottom;align=center;verticalAlign=top;" vertex="1" parent="Rzl8FJI0BWgjn5kntQyp-56">
          <mxGeometry width="181" height="131" as="geometry" />
        </mxCell>
        <mxCell id="Rzl8FJI0BWgjn5kntQyp-41" value="" style="outlineConnect=0;fontColor=#232F3E;gradientColor=none;fillColor=#D05C17;strokeColor=none;dashed=0;verticalLabelPosition=bottom;verticalAlign=top;align=center;html=1;fontSize=12;fontStyle=0;aspect=fixed;pointerEvents=1;shape=mxgraph.aws4.container_registry_image;" vertex="1" parent="Rzl8FJI0BWgjn5kntQyp-56">
          <mxGeometry x="26" y="15.5" width="44.5" height="44.5" as="geometry" />
        </mxCell>
        <mxCell id="Rzl8FJI0BWgjn5kntQyp-42" value="" style="outlineConnect=0;fontColor=#232F3E;gradientColor=none;fillColor=#D05C17;strokeColor=none;dashed=0;verticalLabelPosition=bottom;verticalAlign=top;align=center;html=1;fontSize=12;fontStyle=0;aspect=fixed;pointerEvents=1;shape=mxgraph.aws4.container_registry_image;" vertex="1" parent="Rzl8FJI0BWgjn5kntQyp-56">
          <mxGeometry x="96" y="15.5" width="44.5" height="44.5" as="geometry" />
        </mxCell>
        <mxCell id="Rzl8FJI0BWgjn5kntQyp-52" value="" style="outlineConnect=0;fontColor=#232F3E;gradientColor=none;fillColor=#D05C17;strokeColor=none;dashed=0;verticalLabelPosition=bottom;verticalAlign=top;align=center;html=1;fontSize=12;fontStyle=0;aspect=fixed;pointerEvents=1;shape=mxgraph.aws4.container_registry_image;" vertex="1" parent="Rzl8FJI0BWgjn5kntQyp-56">
          <mxGeometry x="27.5" y="71" width="44.5" height="44.5" as="geometry" />
        </mxCell>
        <mxCell id="Rzl8FJI0BWgjn5kntQyp-53" value="" style="outlineConnect=0;fontColor=#232F3E;gradientColor=none;fillColor=#D05C17;strokeColor=none;dashed=0;verticalLabelPosition=bottom;verticalAlign=top;align=center;html=1;fontSize=12;fontStyle=0;aspect=fixed;pointerEvents=1;shape=mxgraph.aws4.container_registry_image;" vertex="1" parent="Rzl8FJI0BWgjn5kntQyp-56">
          <mxGeometry x="96" y="71" width="44.5" height="44.5" as="geometry" />
        </mxCell>
      </root>
    </mxGraphModel>
  </diagram>
</mxfile>
